<svg xmlns="http://www.w3.org/2000/svg" xmlns:xlink="http://www.w3.org/1999/xlink" version="1.1" width="256" height="256" viewBox="0 0 256 256" xml:space="preserve">

<defs>
</defs>
<g style="stroke: none; stroke-width: 0; stroke-dasharray: none; stroke-linecap: butt; stroke-linejoin: miter; stroke-miterlimit: 10; fill: none; fill-rule: nonzero; opacity: 1;" transform="translate(1.4065934065934016 1.4065934065934016) scale(2.81 2.81)" >
	<path d="M 85.579 76.048 H 4.421 C 2.532 76.048 1 74.516 1 72.627 V 17.373 c 0 -1.889 1.532 -3.421 3.421 -3.421 h 81.159 c 1.889 0 3.421 1.532 3.421 3.421 v 55.254 C 89 74.516 87.468 76.048 85.579 76.048 z" style="stroke: none; stroke-width: 1; stroke-dasharray: none; stroke-linecap: butt; stroke-linejoin: miter; stroke-miterlimit: 10; fill: rgb(234,242,255); fill-rule: nonzero; opacity: 1;" transform=" matrix(1 0 0 1 0 0) " stroke-linecap="round" />
	<path d="M 89 26.229 v -8.856 c 0 -1.889 -1.531 -3.421 -3.421 -3.421 H 4.421 C 2.531 13.952 1 15.484 1 17.373 v 8.856 H 89 z" style="stroke: none; stroke-width: 1; stroke-dasharray: none; stroke-linecap: butt; stroke-linejoin: miter; stroke-miterlimit: 10; fill: rgb(155,196,249); fill-rule: nonzero; opacity: 1;" transform=" matrix(1 0 0 1 0 0) " stroke-linecap="round" />
	<path d="M 85.579 77.048 H 4.421 C 1.983 77.048 0 75.064 0 72.627 V 17.373 c 0 -2.438 1.983 -4.421 4.421 -4.421 h 81.158 c 2.438 0 4.421 1.983 4.421 4.421 v 55.254 C 90 75.064 88.017 77.048 85.579 77.048 z M 4.421 14.952 C 3.086 14.952 2 16.038 2 17.373 v 55.254 c 0 1.335 1.086 2.421 2.421 2.421 h 81.158 c 1.335 0 2.421 -1.086 2.421 -2.421 V 17.373 c 0 -1.335 -1.086 -2.421 -2.421 -2.421 H 4.421 z" style="stroke: none; stroke-width: 1; stroke-dasharray: none; stroke-linecap: butt; stroke-linejoin: miter; stroke-miterlimit: 10; fill: rgb(0,0,0); fill-rule: nonzero; opacity: 1;" transform=" matrix(1 0 0 1 0 0) " stroke-linecap="round" />
	<path d="M 90 27.229 H 0 v -9.856 c 0 -2.438 1.983 -4.421 4.421 -4.421 h 81.158 c 2.438 0 4.421 1.983 4.421 4.421 V 27.229 z M 2 25.229 h 86 v -7.856 c 0 -1.335 -1.086 -2.421 -2.421 -2.421 H 4.421 C 3.086 14.952 2 16.038 2 17.373 V 25.229 z" style="stroke: none; stroke-width: 1; stroke-dasharray: none; stroke-linecap: butt; stroke-linejoin: miter; stroke-miterlimit: 10; fill: rgb(0,0,0); fill-rule: nonzero; opacity: 1;" transform=" matrix(1 0 0 1 0 0) " stroke-linecap="round" />
	<path d="M 43.306 21.091 H 6.694 c -0.552 0 -1 -0.448 -1 -1 s 0.448 -1 1 -1 h 36.612 c 0.552 0 1 0.448 1 1 S 43.858 21.091 43.306 21.091 z" style="stroke: none; stroke-width: 1; stroke-dasharray: none; stroke-linecap: butt; stroke-linejoin: miter; stroke-miterlimit: 10; fill: rgb(0,0,0); fill-rule: nonzero; opacity: 1;" transform=" matrix(1 0 0 1 0 0) " stroke-linecap="round" />
	<path d="M 83.307 21.091 h -4.613 c -0.553 0 -1 -0.448 -1 -1 s 0.447 -1 1 -1 h 4.613 c 0.553 0 1 0.448 1 1 S 83.859 21.091 83.307 21.091 z" style="stroke: none; stroke-width: 1; stroke-dasharray: none; stroke-linecap: butt; stroke-linejoin: miter; stroke-miterlimit: 10; fill: rgb(0,0,0); fill-rule: nonzero; opacity: 1;" transform=" matrix(1 0 0 1 0 0) " stroke-linecap="round" />
	<circle cx="45.004000000000005" cy="50.944" r="18.154" style="stroke: none; stroke-width: 1; stroke-dasharray: none; stroke-linecap: butt; stroke-linejoin: miter; stroke-miterlimit: 10; fill: rgb(254,254,254); fill-rule: nonzero; opacity: 1;" transform="  matrix(1 0 0 1 0 0) "/>
	<path d="M 45.001 70.097 c -10.562 0 -19.154 -8.593 -19.154 -19.154 c 0 -10.561 8.592 -19.153 19.154 -19.153 s 19.153 8.592 19.153 19.153 C 64.154 61.504 55.563 70.097 45.001 70.097 z M 45.001 33.789 c -9.458 0 -17.154 7.695 -17.154 17.153 c 0 9.459 7.695 17.154 17.154 17.154 c 9.458 0 17.153 -7.695 17.153 -17.154 C 62.154 41.484 54.459 33.789 45.001 33.789 z" style="stroke: none; stroke-width: 1; stroke-dasharray: none; stroke-linecap: butt; stroke-linejoin: miter; stroke-miterlimit: 10; fill: rgb(0,0,0); fill-rule: nonzero; opacity: 1;" transform=" matrix(1 0 0 1 0 0) " stroke-linecap="round" />
	<path d="M 45.001 70.097 c -0.552 0 -1 -0.447 -1 -1 V 32.789 c 0 -0.552 0.448 -1 1 -1 s 1 0.448 1 1 v 36.308 C 46.001 69.649 45.553 70.097 45.001 70.097 z" style="stroke: none; stroke-width: 1; stroke-dasharray: none; stroke-linecap: butt; stroke-linejoin: miter; stroke-miterlimit: 10; fill: rgb(0,0,0); fill-rule: nonzero; opacity: 1;" transform=" matrix(1 0 0 1 0 0) " stroke-linecap="round" />
	<path d="M 45.001 70.097 c -5.838 0 -10.412 -8.413 -10.412 -19.154 c 0 -10.74 4.573 -19.153 10.412 -19.153 c 5.838 0 10.411 8.413 10.411 19.153 C 55.412 61.684 50.839 70.097 45.001 70.097 z M 45.001 33.789 c -4.56 0 -8.412 7.855 -8.412 17.153 c 0 9.299 3.852 17.154 8.412 17.154 s 8.411 -7.855 8.411 -17.154 C 53.412 41.645 49.561 33.789 45.001 33.789 z" style="stroke: none; stroke-width: 1; stroke-dasharray: none; stroke-linecap: butt; stroke-linejoin: miter; stroke-miterlimit: 10; fill: rgb(0,0,0); fill-rule: nonzero; opacity: 1;" transform=" matrix(1 0 0 1 0 0) " stroke-linecap="round" />
	<path d="M 61.829 58.751 h -33.66 c -0.552 0 -1 -0.447 -1 -1 s 0.448 -1 1 -1 h 33.66 c 0.553 0 1 0.447 1 1 S 62.382 58.751 61.829 58.751 z" style="stroke: none; stroke-width: 1; stroke-dasharray: none; stroke-linecap: butt; stroke-linejoin: miter; stroke-miterlimit: 10; fill: rgb(0,0,0); fill-rule: nonzero; opacity: 1;" transform=" matrix(1 0 0 1 0 0) " stroke-linecap="round" />
	<path d="M 61.832 45.134 H 28.171 c -0.552 0 -1 -0.448 -1 -1 s 0.448 -1 1 -1 h 33.661 c 0.553 0 1 0.448 1 1 S 62.385 45.134 61.832 45.134 z" style="stroke: none; stroke-width: 1; stroke-dasharray: none; stroke-linecap: butt; stroke-linejoin: miter; stroke-miterlimit: 10; fill: rgb(0,0,0); fill-rule: nonzero; opacity: 1;" transform=" matrix(1 0 0 1 0 0) " stroke-linecap="round" />
</g>
</svg>
